<?xml version="1.0" encoding="UTF-8" standalone="no"?>
<!-- Created with Inkscape (http://www.inkscape.org/) -->

<svg
   xmlns:dc="http://purl.org/dc/elements/1.1/"
   xmlns:cc="http://creativecommons.org/ns#"
   xmlns:rdf="http://www.w3.org/1999/02/22-rdf-syntax-ns#"
   xmlns:svg="http://www.w3.org/2000/svg"
   xmlns="http://www.w3.org/2000/svg"
   version="1.1"
   width="1000"
   height="1375"
   id="svg3039">
  <metadata
     id="metadata3045">
    <rdf:RDF>
      <cc:Work
         rdf:about="">
        <dc:format>image/svg+xml</dc:format>
        <dc:type
           rdf:resource="http://purl.org/dc/dcmitype/StillImage" />
        <dc:title></dc:title>
      </cc:Work>
    </rdf:RDF>
  </metadata>
  <defs
     id="defs3043" />
  <g
     id="layer1" />
  <path
     d="m 426.60359,1338.4426 c -18.12346,-20.2125 -60.8587,-67.7875 -94.9672,-105.7222 l -62.01547,-68.9723 -0.5,-82.0277 -0.5,-82.02779 -38.5,-0.31932 -38.5,-0.31931 -53.68079,-62.18069 C 108.41569,902.67392 65.557992,853.09261 42.7008,826.69261 l -41.5585312,-48 0.02204,-284.5 0.02204,-284.5 36.0386152,-40 c 19.821238,-22 62.212263,-69.1375 94.202266,-104.749999 l 58.16366,-64.74999951 174.15916,0 174.15916,0 29.35586,32.73139951 c 16.14572,18.00228 59.16835,65.95991 95.60585,106.572529 l 66.25,73.84112 -0.0311,280.67748 -0.0311,280.67747 -41.07133,48 c -22.58923,26.4 -49.71335,58.125 -60.27582,70.5 -10.56248,12.375 -35.26564,41.2875 -54.89593,64.25 l -35.6915,41.75 -31.00161,0 -31.00161,0 0,62.75859 0,62.7585 19.75,22.2001 19.75,22.2 126.65975,0.041 126.65975,0.041 20.16275,-22.25 20.16276,-22.25 -0.21754,-229.99999 c -0.11964,-126.4992 -0.15227,-275.3367 -0.0725,-330.7492 l 0.14503,-100.75 96,0 95.99998,0 -0.015,349.75 -0.015,349.74999 -15.59982,17.5 c -8.57991,9.625 -18.62027,20.875 -22.31191,25 -3.69164,4.125 -12.47792,14.025 -19.52508,22 -7.04716,7.975 -15.56237,17.6114 -18.9227,21.4142 -3.36032,3.8028 -6.56988,7.4028 -7.13235,8 -1.43428,1.5228 -52.22866,58.8195 -80.97733,91.3434 l -24,27.1517 -176.0328,0.045 -176.03279,0.045 -32.95174,-36.7501 z m -157.48267,-715.74999 0,-158.5 103,0 103,0 0,158.5 0,158.5 11.30162,0 11.30161,0 19.69839,-22.89514 19.69838,-22.89513 -0.0184,-238.85487 -0.0184,-238.85486 -19.7316,-22.17461 -19.7316,-22.17461 -126.61413,-0.0754 -126.61413,-0.0754 -6.88587,7.66739 c -3.78723,4.21706 -12.82102,14.22956 -20.07509,22.25 l -13.18922,14.58261 0.10231,239.14447 0.10231,239.14447 19.58691,22.54006 19.58691,22.54006 12.75,0.0655 12.75,0.0654 z M 209.3617,1071.1224 c -7.50531,-2.1675 -13.11666,-11.786 -11.72569,-20.0191 1.81374,-10.7354 13.97104,-17.7004 24.16981,-13.8471 3.44863,1.303 8.01022,5.511 9.90438,9.1367 1.83686,3.5161 1.80764,12.1315 -0.0534,15.7302 -2.02588,3.9177 -6.88835,7.7955 -11.31697,9.0255 -4.37047,1.2138 -6.55695,1.1992 -10.96255,-0.073 z m 15.46087,-3.5564 c 5.15854,-3.8514 6.79835,-7.0771 6.79835,-13.3734 0,-6.5488 -1.81199,-9.8855 -7.4537,-13.7257 -4.78404,-3.2563 -9.33334,-3.8183 -14.60664,-1.8044 -12.57286,4.8016 -14.14506,22.5971 -2.59675,29.4775 4.66778,2.7811 13.78807,2.4652 17.85874,-0.574 z m -17.75078,-3.4117 c -0.11577,-4.9947 -0.12925,-5.049 -0.077,-10.4572 l 0.10402,-10.7641 7.28804,0.088 c 6.50345,0.079 6.90414,1.3562 8.16792,2.9416 0.68032,0.8533 0.85708,3.0002 0.46607,5.0858 -0.28576,1.5241 -1.58892,2.464 -3.70675,3.784 -0.16875,0.077 1.65057,2.3327 3.43182,4.8598 0.90335,1.2816 1.63804,2.3183 2.11641,3.1578 1.20511,2.1148 0.99769,1.6863 1.27141,2.2593 0.0809,0.1693 -1.07951,0.1414 -1.63995,0.1315 -0.49061,-0.01 -0.54803,0.15 -0.9578,-0.2781 -0.47414,-0.4953 -1.14532,-1.4227 -2.07065,-2.5993 -1.90111,-2.4173 -2.72968,-4.0666 -3.59551,-5.1642 -0.41549,-0.5267 -1.11323,-1.8238 -1.67561,-1.8339 -4.88148,-0.088 -3.29936,-0.06 -4.32659,-0.06 -2.33365,0 -1.77907,0.01 -1.77907,4.0928 0,2.3537 0.0385,3.6854 0.0247,5.2959 -0.002,0.2263 0.0805,0.4619 -0.0793,0.4688 -2.06515,0.089 -0.80649,0.1329 -2.93088,0.085 z m 12.20326,-12.2621 c 1.06384,-0.5693 1.84587,-1.6383 1.84587,-2.6996 0,-1.326 -0.74248,-2.2357 -2.38846,-2.6699 -1.39934,-0.3691 -3.5252,-0.3578 -5.62032,-0.3578 -3.49336,0 -2.99122,-0.8913 -2.99122,3.0277 0,3.9188 0.0282,3.0277 3.52155,3.0277 1.96116,0 4.56874,0.2413 5.63258,-0.3281 z"
     id="path4021"
     style="fill:#ffffff;fill-opacity:1" />
</svg>
