<?xml version="1.0" encoding="UTF-8" standalone="no"?>
<!-- Created with Inkscape (http://www.inkscape.org/) -->

<svg
   xmlns:dc="http://purl.org/dc/elements/1.1/"
   xmlns:cc="http://creativecommons.org/ns#"
   xmlns:rdf="http://www.w3.org/1999/02/22-rdf-syntax-ns#"
   xmlns:svg="http://www.w3.org/2000/svg"
   xmlns="http://www.w3.org/2000/svg"
   xmlns:sodipodi="http://sodipodi.sourceforge.net/DTD/sodipodi-0.dtd"
   xmlns:inkscape="http://www.inkscape.org/namespaces/inkscape"
   width="744.09448819"
   height="1052.3622047"
   id="svg3260"
   version="1.1"
   inkscape:version="0.48.0 r9654"
   sodipodi:docname="New document 3">
  <defs
     id="defs3262" />
  <sodipodi:namedview
     id="base"
     pagecolor="#ffffff"
     bordercolor="#666666"
     borderopacity="1.0"
     inkscape:pageopacity="0.0"
     inkscape:pageshadow="2"
     inkscape:zoom="0.35"
     inkscape:cx="375"
     inkscape:cy="520"
     inkscape:document-units="px"
     inkscape:current-layer="layer1"
     showgrid="false"
     inkscape:window-width="1280"
     inkscape:window-height="744"
     inkscape:window-x="-4"
     inkscape:window-y="-4"
     inkscape:window-maximized="1" />
  <metadata
     id="metadata3265">
    <rdf:RDF>
      <cc:Work
         rdf:about="">
        <dc:format>image/svg+xml</dc:format>
        <dc:type
           rdf:resource="http://purl.org/dc/dcmitype/StillImage" />
        <dc:title></dc:title>
      </cc:Work>
    </rdf:RDF>
  </metadata>
  <g
     inkscape:label="Layer 1"
     inkscape:groupmode="layer"
     id="layer1">
    <g
       id="g236"
       transform="matrix(21.428267,0,0,21.428267,-15.195252,-10.134022)">
      <g
         id="g238">
        <path
           d="m 8.172,36.577 c 0,0.362 -0.258,0.605 -0.562,0.605 V 37.18 c -0.312,0.002 -0.563,-0.241 -0.563,-0.604 0,-0.361 0.251,-0.603 0.563,-0.603 0.305,0.002 0.562,0.243 0.562,0.604 m 0.227,0 c 0,-0.497 -0.372,-0.787 -0.789,-0.787 -0.418,0 -0.79,0.29 -0.79,0.787 0,0.497 0.372,0.787 0.79,0.787 0.417,0 0.789,-0.29 0.789,-0.787 m -0.92,0.067 H 7.565 L 7.761,37 H 7.976 L 7.759,36.63 c 0.112,-0.009 0.204,-0.064 0.204,-0.222 0,-0.192 -0.129,-0.255 -0.347,-0.255 H 7.298 V 37 h 0.181 v -0.356 z m 0,-0.144 v -0.203 h 0.127 c 0.069,0 0.162,0.007 0.162,0.094 0,0.093 -0.048,0.109 -0.129,0.109 h -0.16 z"
           id="path240"
           inkscape:connector-curvature="0"
           style="fill:#990000" />
        <path
           d="m 7.45,9.589 v 16.316 l 1.67,1.692 h 9.273 L 19.76,25.894 V 9.589 L 18.393,7.849 H 9.12 l -1.67,1.74 z m 0,-8.86 h 12.306 l 6.426,7.115 v 19.754 l -6.426,7.124 H 7.45 L 1.024,27.598 V 7.849 L 7.45,0.729 z"
           id="path242"
           inkscape:connector-curvature="0"
           style="fill:#990000" />
        <polygon
           points="28.662,38.812 28.662,16.883 35.084,16.877 35.084,40.514 28.658,47.638 17.021,47.638 10.597,40.514 10.597,16.883 17.021,16.883 17.021,38.821 18.691,40.514 27.295,40.514 "
           id="polygon244"
           style="fill:#990000" />
      </g>
    </g>
  </g>
</svg>
